<svg xmlns="http://www.w3.org/2000/svg" viewBox="0 0 512 512" width="512" height="512">
  <!-- Dark background with rounded corners for maskable icon -->
  <rect width="512" height="512" fill="#1A1410" rx="90"/>

  <!-- Subtle gold glow in center -->
  <radialGradient id="glow" cx="50%" cy="45%" r="45%">
    <stop offset="0%" stop-color="#C9A96E" stop-opacity="0.12"/>
    <stop offset="100%" stop-color="#C9A96E" stop-opacity="0"/>
  </radialGradient>
  <rect width="512" height="512" fill="url(#glow)" rx="90"/>

  <!-- Decorative thin lines top and bottom -->
  <line x1="60" y1="48" x2="452" y2="48" stroke="#C9A96E" stroke-width="1" opacity="0.35"/>
  <line x1="60" y1="464" x2="452" y2="464" stroke="#C9A96E" stroke-width="1" opacity="0.35"/>

  <!-- Logo — original is 924x698, we scale to fit ~420x317 and center in 512x512 -->
  <!-- Center X: (512-420)/2 = 46, Center Y: (512-317)/2 = 97 -->
  <!-- scale factor: 420/924 = 0.4545 -->
  <!-- Combined with internal scale 0.1: total = 0.04545 -->
  <!-- translate: original starts at (0,698) going negative -->
  <g transform="translate(46, 97) scale(0.4545, 0.4545)" fill="#C9A96E" stroke="none">
    <g transform="translate(0.000000,698.000000) scale(0.100000,-0.100000)" fill="#C9A96E" stroke="none">
      <path d="M3875 5529 c-143 -138 -259 -256 -257 -262 2 -7 41 -119 88 -250 47 -131 84 -241 81 -243 -2 -3 -118 38 -257 91 l-252 95 -316 -303 c-174 -166 -414 -394 -533 -507 -119 -113 -217 -208 -218 -213 -1 -4 61 41 137 101 75 59 326 256 557 437 l419 328 399 -132 c219 -73 400 -131 403 -129 2 3 -63 150 -146 328 -82 177 -148 326 -145 330 2 4 72 60 154 124 97 75 155 115 163 110 33 -20 1058 -837 1055 -841 -3 -2 -121 44 -263 102 -142 58 -263 104 -269 101 -7 -2 -140 -161 -297 -353 -157 -191 -317 -387 -357 -435 -40 -49 -70 -88 -68 -88 3 0 172 157 378 349 205 192 377 347 383 345 32 -10 799 -194 809 -193 7 0 -103 112 -243 250 l-255 250 65 60 c36 32 70 57 77 55 6 -3 407 -252 890 -554 959 -599 915 -572 893 -550 -8 9 -226 188 -485 398 -258 210 -656 534 -883 719 -227 185 -417 337 -421 339 -4 1 -57 -57 -116 -130 -60 -73 -121 -148 -136 -165 l-28 -33 -366 358 c-201 196 -369 358 -373 359 -4 1 -124 -111 -267 -248z"/>
      <path d="M1839 3516 c-115 -55 -115 -55 -299 -57 l-125 -2 40 -34 c22 -19 57 -43 77 -54 45 -23 68 -54 68 -94 0 -52 -291 -1047 -314 -1074 -12 -13 -38 -36 -58 -51 l-38 -28 204 2 204 1 5 40 c10 79 57 304 102 482 55 220 110 384 175 520 l48 101 110 1 110 1 5 -32 c2 -18 2 -224 0 -458 -5 -454 -10 -503 -58 -585 -12 -22 -32 -49 -44 -59 -12 -11 -21 -23 -21 -27 0 -4 30 -17 68 -30 46 -15 79 -34 106 -61 l40 -39 22 29 c25 31 89 63 167 83 38 9 47 15 43 28 -3 9 -17 54 -32 101 l-28 85 0 505 -1 504 38 8 c49 10 108 16 182 18 l60 1 -48 20 c-52 21 -146 82 -189 123 -28 27 -48 32 -64 17 -5 -5 -25 -12 -44 -15 -19 -4 -69 -12 -110 -20 -86 -16 -330 -21 -330 -8 0 5 5 23 11 40 21 60 11 63 -82 18z"/>
      <path d="M5705 3010 c-15 -16 -16 -36 -9 -184 l7 -165 -26 -6 c-14 -4 -70 -5 -124 -3 l-98 4 -5 159 c-3 88 -9 168 -14 178 -9 19 -45 18 -111 -3 -16 -5 -48 -12 -70 -15 -22 -3 -49 -7 -60 -9 -11 -2 -26 -4 -32 -5 -23 -2 -14 -19 23 -40 l35 -21 -3 -349 c-3 -344 -3 -350 -25 -380 -13 -17 -23 -35 -23 -41 0 -6 57 -10 165 -10 171 0 183 3 150 40 -22 24 -35 109 -35 221 0 87 2 99 18 100 131 6 232 2 237 -9 14 -36 -5 -296 -31 -431 -7 -41 -12 -76 -10 -79 2 -2 37 24 78 58 40 34 103 78 141 99 56 30 66 39 62 56 -19 66 -14 592 7 673 2 8 -26 32 -65 55 -37 23 -89 61 -116 84 -47 41 -49 42 -66 23z"/>
      <path d="M2975 2999 c-11 -4 -42 -26 -70 -50 -52 -43 -157 -99 -187 -99 -22 0 -22 -1 -4 -87 8 -37 17 -102 21 -143 8 -97 -11 -314 -34 -390 l-19 -60 32 0 c54 0 193 -38 275 -76 l79 -36 38 20 c57 28 155 60 229 74 52 10 64 16 59 28 -4 8 -9 66 -12 128 -2 61 -6 112 -8 112 -3 0 -27 -11 -53 -25 -54 -27 -84 -60 -101 -109 l-10 -32 -72 8 c-40 5 -97 14 -127 21 l-56 13 3 99 c2 55 5 101 7 104 3 2 17 5 32 7 15 1 42 5 58 8 17 3 51 8 76 11 26 3 58 8 70 10 28 6 131 17 174 19 35 1 34 -4 11 141 -9 55 -16 139 -16 188 l0 87 -27 1 c-92 4 -126 6 -198 13 -44 4 -96 11 -115 15 -20 4 -45 5 -55 0z m52 -174 c43 -8 90 -15 106 -15 25 0 27 -3 27 -37 0 -21 5 -56 10 -78 5 -22 8 -41 6 -42 -4 -4 -197 -53 -208 -53 -5 0 -8 28 -9 63 0 34 -4 88 -8 120 -4 31 -6 57 -5 57 1 0 38 -7 81 -15z"/>
      <path d="M3778 3005 c-3 -3 -41 -12 -84 -21 -43 -9 -86 -17 -94 -19 -8 -2 -25 -4 -37 -4 -33 -1 -28 -26 7 -41 l30 -12 0 -358 0 -358 -25 -30 c-14 -17 -25 -35 -25 -41 0 -8 61 -11 200 -11 193 0 200 1 200 20 0 11 -7 20 -15 20 -9 0 -29 7 -45 15 -40 21 -50 64 -50 226 l0 136 71 102 c39 56 77 105 86 108 9 3 43 -9 76 -27 l60 -33 22 27 c26 32 64 137 67 185 3 33 3 33 -67 55 -38 11 -74 24 -80 27 -5 4 -27 14 -48 23 l-38 15 -11 -32 c-6 -17 -39 -86 -72 -152 l-61 -120 -3 128 c-2 97 -7 135 -18 153 -15 23 -34 30 -46 19z"/>
      <path d="M4524 2958 c-61 -53 -161 -108 -194 -108 -24 0 -24 3 -3 -90 30 -138 19 -435 -21 -551 l-14 -39 32 0 c54 0 193 -38 275 -76 l79 -36 38 20 c58 29 153 59 228 73 55 10 65 15 60 28 -4 9 -9 66 -12 127 -3 77 -8 111 -16 110 -62 -12 -125 -68 -145 -129 l-11 -33 -72 8 c-40 5 -97 14 -127 21 l-56 13 3 99 c2 55 5 101 6 102 1 1 20 5 42 8 21 3 45 8 53 11 8 3 40 7 70 10 31 2 70 7 86 10 43 8 115 16 155 17 41 2 40 -5 16 142 -9 55 -16 139 -16 188 l0 87 -42 2 c-107 5 -242 16 -305 26 l-51 9 -58 -49z m106 -133 c35 -5 103 -13 126 -14 6 -1 14 -29 17 -64 3 -34 9 -70 12 -79 6 -15 -10 -23 -65 -33 -3 0 -35 -9 -73 -19 -37 -11 -69 -17 -71 -15 -2 2 -7 57 -10 122 -7 112 -7 119 11 113 10 -3 34 -8 53 -11z"/>
      <path d="M6765 2999 c-44 -4 -141 -9 -215 -10 l-135 -2 -125 -65 c-69 -36 -127 -66 -130 -69 -2 -2 8 -15 23 -29 41 -38 57 -76 68 -167 11 -84 -2 -351 -20 -429 l-9 -38 61 -37 c34 -20 85 -57 115 -81 l53 -43 52 43 c66 56 100 80 176 122 l61 35 2 -150 c1 -82 2 -175 3 -206 l0 -57 -62 -20 -62 -20 -53 36 c-77 51 -175 104 -237 128 l-54 21 -24 -23 c-27 -26 -89 -147 -98 -194 l-6 -31 63 -6 c74 -6 151 -33 232 -82 32 -19 70 -35 85 -35 14 0 49 16 76 36 104 74 274 144 352 144 l36 0 -7 46 c-3 26 -6 287 -6 580 l0 533 -57 38 c-67 44 -55 41 -158 32z m-32 -266 c4 -21 7 -113 7 -204 l0 -167 -86 -41 c-80 -38 -89 -40 -108 -27 -60 43 -56 26 -56 254 0 192 2 211 18 214 9 2 62 5 118 7 l101 2 6 -38z"/>
      <path d="M7578 2984 c-31 -13 -67 -25 -80 -28 -12 -2 -36 -7 -52 -12 -35 -8 -58 -10 -153 -12 -86 -2 -88 -7 -47 -91 21 -41 36 -57 66 -71 50 -22 139 -16 232 16 38 13 73 24 78 24 4 0 8 -40 8 -89 l0 -89 -32 -12 c-70 -25 -217 -46 -315 -45 l-102 0 7 -40 c9 -53 9 -255 -1 -327 l-7 -58 29 0 c58 0 186 -30 246 -59 l62 -29 62 74 62 75 40 -61 c23 -33 50 -65 62 -72 18 -9 23 -7 36 13 29 45 111 126 146 145 19 10 35 22 35 26 0 4 -13 14 -30 23 -46 24 -55 71 -54 295 0 158 3 204 17 240 9 25 17 48 17 51 0 3 -25 9 -56 13 -65 7 -135 41 -184 89 l-35 33 -57 -22z m52 -590 l0 -127 -37 7 c-21 3 -58 6 -83 6 -71 0 -73 4 -65 108 l7 90 62 12 c34 6 69 16 77 21 36 22 39 12 39 -117z"/>
    </g>
  </g>
</svg>